<?xml version="1.0" encoding="UTF-8" standalone="no" ?>
<!DOCTYPE svg PUBLIC "-//W3C//DTD SVG 1.1//EN" "http://www.w3.org/Graphics/SVG/1.1/DTD/svg11.dtd">
<svg
  xmlns="http://www.w3.org/2000/svg"
  xmlns:xlink="http://www.w3.org/1999/xlink"
  version="1.1"
  viewBox="-58 -10 1080 1080"
  xml:space="preserve"
>
  <g
    transform="matrix(1 0 0 1 540 540)"
    id="48e2361f-96bb-48a4-957b-024175f9d8d8"
  >
    <rect
      style="
        stroke: none;
        stroke-width: 1;
        stroke-dasharray: none;
        stroke-linecap: butt;
        stroke-dashoffset: 0;
        stroke-linejoin: miter;
        stroke-miterlimit: 4;
        fill: rgb(255, 255, 255);
        fill-rule: nonzero;
        opacity: 1;
        visibility: hidden;
      "
      vector-effect="non-scaling-stroke"
      x="-540"
      y="-540"
      rx="0"
      ry="0"
      width="1080"
      height="1080"
    />
  </g>
  <g
    transform="matrix(1 0 0 1 540 540)"
    id="37e219b3-c778-4895-9318-9d3536a67730"
  ></g>
  <g transform="matrix(NaN NaN NaN NaN 0 0)">
    <g style=""></g>
  </g>
  <g transform="matrix(2.03 0 0 2.11 477.26 523.99)" id="Layer_1">
    <path
      style="
        stroke: none;
        stroke-width: 1;
        stroke-dasharray: none;
        stroke-linecap: butt;
        stroke-dashoffset: 0;
        stroke-linejoin: miter;
        stroke-miterlimit: 4;
        fill: rgb(0, 0, 0);
        fill-opacity: 0;
        fill-rule: nonzero;
        opacity: 1;
      "
      vector-effect="non-scaling-stroke"
      transform=" translate(-257, -257)"
      d="M 1 193 C 1 128.666672 1 64.833336 1 1 C 171.666672 1 342.333344 1 513 1 C 513 171.666672 513 342.333344 513 513 C 342.333344 513 171.666672 513 1 513 C 1 406.5 1 300 1 193 M 65.283066 426.157654 C 69.607697 427.740234 73.828484 429.768555 78.280205 430.805664 C 85.809349 432.559662 89.805885 428.591156 89.013054 421.038177 C 88.559746 416.719818 85.272675 415.545044 82.110657 414.116333 C 72.65271 409.842773 62.921467 406.084625 53.784321 401.211426 C 40.008907 393.864441 31.705124 383.180267 32.803871 366.200348 C 33.748936 351.595367 32.999817 336.880798 32.999817 322.214691 C 32.999817 319.120361 32.999821 316.026031 32.999821 312.241669 C 34.209911 313.049744 34.743614 313.351746 35.216473 313.729828 C 49.379791 325.054504 65.934021 331.895752 83.008736 336.697266 C 100.706573 341.673981 118.928055 345.072784 137.112137 347.951141 C 153.205078 350.498535 169.532074 351.873077 185.810699 352.844299 C 198.764084 353.617126 211.806854 353.252625 224.797913 352.921448 C 235.537659 352.647675 246.276962 351.880035 256.982544 350.943512 C 262.320465 350.476562 264.76947 346.573059 263.970154 341.158325 C 263.364197 337.053314 258.440155 334.034149 253.915329 334.529938 C 247.674652 335.213745 241.398697 335.825928 235.128464 335.936646 C 222.897461 336.152649 210.658386 336.117065 198.425659 335.957031 C 190.474472 335.852997 182.488022 335.74234 174.588654 334.936157 C 157.542221 333.196533 140.424332 331.699066 123.550262 328.837219 C 98.914879 324.659027 74.985283 317.914795 53.172165 305.052277 C 40.139687 297.367493 31.947205 287.45166 32.80957 271.056824 C 33.675041 254.602982 32.993366 238.0681 33.010292 221.568741 C 33.011906 219.998169 33.159794 218.42775 33.256004 216.538589 C 34.141876 217.033829 34.585361 217.214294 34.951 217.495865 C 49.957104 229.052032 66.994965 236.495285 85.188454 241.01767 C 102.262856 245.261871 119.4953 249.085052 136.849442 251.924835 C 152.27565 254.449127 167.938736 256.39212 183.542267 256.779663 C 212.741043 257.504883 242.007721 257.866241 271.087952 253.966064 C 277.604279 253.092133 284.142242 252.22438 290.565857 250.861816 C 296.125977 249.682434 298.397491 245.085632 296.913849 239.325455 C 296.007721 235.807419 291.100922 233.530853 286.750854 234.091522 C 270.735382 236.155731 254.742096 238.715836 238.653656 239.793579 C 224.316711 240.754013 209.859131 240.253311 195.465668 239.923294 C 183.900848 239.658142 172.277832 239.289917 160.813873 237.882355 C 143.355469 235.738815 125.820656 233.528381 108.668198 229.755554 C 86.907082 224.968994 65.525444 218.45491 47.159859 204.980728 C 39.001957 198.995575 33.292 191.986252 33.79108 180.57074 C 34.5765 162.605759 33.993866 144.581238 34.010296 126.581932 C 34.011726 125.01384 34.160416 123.445885 34.25742 121.551483 C 39.976662 125.160255 45.057892 128.825684 50.539612 131.737076 C 65.492584 139.678741 81.491188 145.086304 97.904236 148.836578 C 112.955933 152.275787 128.235184 154.996124 143.554398 156.912048 C 159.919601 158.958771 176.432602 159.991913 192.912537 160.892166 C 203.44841 161.467682 214.042969 161.115631 224.607925 160.957748 C 231.226227 160.858856 237.878143 160.699753 244.445755 159.956207 C 263.444916 157.805222 282.488403 155.848862 301.366577 152.876648 C 324.269836 149.270752 346.327667 142.464813 367.05246 131.89418 C 373.005829 128.857681 378.492889 124.906952 384.58313 121.134193 C 384.745453 121.991249 384.954742 122.582687 384.955475 123.174377 C 384.979675 143.173416 385.428375 163.189011 384.68399 183.160049 C 384.494141 188.254181 381.6521 194.352386 378.017181 197.965897 C 372.031647 203.916138 364.957184 209.40062 357.346619 212.944092 C 344.851166 218.761963 331.519928 222.768799 318.643463 227.801056 C 316.60022 228.599564 313.961121 230.542618 313.600281 232.35524 C 313.049866 235.120163 313.595764 238.549377 314.849915 241.125015 C 316.829712 245.190765 321.165344 244.730087 324.530334 243.58075 C 337.016663 239.315933 349.555267 235.087097 361.677673 229.915176 C 369.73349 226.47821 377.114807 221.460266 385.002838 217.03508 C 385.002838 227.931824 384.920441 238.758087 385.033508 249.582306 C 385.102173 256.157471 390.003021 259.30835 396.232391 257.054291 C 401.802612 255.038773 401.937347 250.157455 401.945068 245.574005 C 402.031006 194.576111 402.065338 143.577835 401.950562 92.580048 C 401.923431 80.536446 397.779327 69.999466 388.97876 61.450123 C 376.966522 49.780773 362.201874 42.683857 346.824127 37.12191 C 315.937714 25.95063 283.699066 20.817047 251.107193 18.149603 C 236.890579 16.986063 222.551407 17.243629 208.265289 17.03241 C 198.43541 16.887074 188.570206 16.562227 178.776276 17.187162 C 165.773254 18.016869 152.787766 19.413536 139.863983 21.097788 C 130.082275 22.372559 120.362595 24.260347 110.707199 26.308535 C 105.986267 27.30998 103.919998 31.903889 105.106262 36.925442 C 106.085281 41.069736 110.1782 43.665508 114.68084 42.903187 C 122.462654 41.585686 130.191406 39.828857 138.02005 38.939884 C 154.577164 37.059757 171.15686 35.176105 187.780121 34.148022 C 199.965607 33.394398 212.250717 33.611717 224.463455 34.098297 C 240.163864 34.723827 255.936539 35.269737 271.496765 37.264385 C 293.717865 40.112885 315.746277 44.367355 336.919464 52.101349 C 351.878387 57.565441 366.605743 63.452065 377.873993 75.390205 C 383.939056 81.815773 387.226868 89.485229 381.584595 97.503624 C 378.586487 101.76432 374.884033 105.780655 370.76651 108.957085 C 356.080505 120.286491 338.794983 126.430161 321.146759 130.738831 C 302.945984 135.182419 284.299988 137.866135 265.782898 140.920166 C 257.989197 142.205612 250.03746 142.634598 242.137863 143.15184 C 230.739548 143.898193 219.321213 144.870728 207.915253 144.823563 C 195.678635 144.772964 183.432358 143.844513 171.216522 142.943558 C 160.359421 142.142822 149.421951 141.513245 138.729248 139.623749 C 123.844543 136.993454 109.070526 133.594971 94.403931 129.909302 C 77.319038 125.615913 60.934139 119.273857 46.67849 108.697159 C 40.645416 104.221039 34.688541 99.013847 33.984241 90.497261 C 33.187286 80.860245 39.436958 75.277275 45.994957 70.039841 C 56.730881 61.465771 69.181366 56.212776 82.085564 51.856129 C 88.33873 49.744961 90.657997 45.152439 88.715851 39.505653 C 87.296867 35.379948 82.689819 33.788498 76.852707 35.616924 C 72.621941 36.942173 68.35067 38.246704 64.302475 40.026714 C 49.838539 46.386581 35.891266 53.642765 25.514582 66.053078 C 20.103334 72.524818 16.882092 79.739105 16.897327 88.631805 C 17.062101 184.794525 17.063593 280.957733 16.904049 377.120483 C 16.887741 386.950317 20.793707 394.559052 27.036579 401.581421 C 37.327534 413.157288 50.723076 419.879547 65.283066 426.157654 M 394.435181 479.999817 C 388.586456 479.999786 382.669373 480.561981 376.905762 479.861572 C 369.20694 478.925964 361.337921 477.852814 354.052795 475.351196 C 335.293762 468.909546 319.738159 457.490143 308.085876 441.436584 C 290.519958 417.235657 285.159332 390.185577 292.497498 361.228546 C 297.825348 340.204407 309.574554 322.966919 326.856049 309.580566 C 349.588531 291.971771 375.477142 286.295776 403.196014 291.351501 C 426.53653 295.608673 445.914978 307.848877 460.418518 326.963379 C 479.909058 352.650269 485.205444 381.354797 476.118958 412.072083 C 473.052948 422.436737 466.705811 431.838959 461.781006 441.642242 C 459.275482 446.629669 460.253082 451.206543 464.586548 453.852356 C 468.42392 456.195221 473.450317 455.221588 476.309204 451.125977 C 487.793701 434.673279 495.123291 416.457672 496.814545 396.481628 C 497.909149 383.552185 497.272278 370.506165 494.039368 357.7099 C 487.396423 331.416565 472.785095 310.32663 451.35199 294.289886 C 436.257202 282.995575 419.027374 276.123596 399.970642 273.848694 C 379.856476 271.447632 360.43103 273.281189 341.735535 281.08551 C 325.191528 287.99173 311.074432 298.205383 299.349579 311.978546 C 289.10965 324.007324 281.5802 337.466156 277.177917 352.405823 C 271.869354 370.42099 271.414917 388.869873 274.928436 407.447632 C 280.041382 434.482452 293.795349 456.352234 315.032623 473.241211 C 335.401672 489.439697 358.856293 497.283813 385.224213 497.168427 C 409.060608 497.064178 430.314636 490.247864 449.949677 477.050354 C 454.903412 473.720703 456.092987 467.885498 453.161621 463.733124 C 450.527008 460.001221 444.76004 459.136047 439.391357 463.068878 C 426.265167 472.684326 411.410461 477.941589 394.435181 479.999817 M 339.861542 338.162781 C 335.39563 342.815491 335.70401 348.116272 341.040802 353.48703 C 351.440887 363.953461 361.947784 374.313751 373.223206 385.526184 C 371.440094 386.827911 369.94516 387.655609 368.777435 388.813324 C 359.194092 398.314362 349.648987 407.85434 340.141724 417.43161 C 336.266479 421.335297 335.693665 426.933228 338.682892 430.192627 C 342.44928 434.299438 348.188965 434.26062 352.501312 429.958893 C 363.469238 419.018127 374.385162 408.025208 385.764099 396.609528 C 386.57431 397.662292 387.187469 398.666687 387.995178 399.477173 C 398.461365 409.978882 408.926941 420.481476 419.456573 430.919434 C 423.418854 434.847198 429.982422 433.650116 432.664307 428.839569 C 435.092407 424.484161 433.610687 421.105042 430.489838 417.97522 C 419.584869 407.039001 408.670837 396.111816 397.61499 385.035645 C 399.038757 383.54837 400.151184 382.343231 401.309082 381.183502 C 410.843811 371.633148 420.572784 362.265137 429.789459 352.41745 C 431.937836 350.121979 433.811646 345.931976 433.278839 343.088257 C 431.962372 336.061859 423.244476 334.416229 417.811493 339.777435 C 407.850647 349.60672 398.006104 359.553802 388.096344 369.434998 C 387.09021 370.438202 385.969757 371.326752 384.822571 372.338898 C 374.032837 361.538147 363.491882 351.114502 353.114838 340.530151 C 349.42218 336.763672 345.398956 335.954651 339.861542 338.162781 M 210.5 449.000031 C 227.230042 448.32724 243.966629 447.777985 260.685425 446.892914 C 264.752319 446.677643 267.611084 444.502472 268.069916 439.725372 C 268.859192 431.507141 263.022949 429.367706 255.630035 430.030548 C 247.076569 430.797424 238.495712 431.989838 229.941559 431.87674 C 207.211975 431.576141 184.447571 431.31012 161.780502 429.787537 C 146.391785 428.753906 131.123627 425.751709 115.843857 423.359711 C 110.092186 422.45932 106.173134 424.408173 104.920288 429.732941 C 103.72007 434.834045 106.263077 438.809631 111.988342 439.949921 C 119.883675 441.52243 127.803665 443.210205 135.796967 444.004272 C 155.175247 445.929382 174.595291 447.454498 194.013824 448.940674 C 199.147324 449.333557 204.336426 449 210.5 449.000031 M 208.540497 192.999008 C 200.28981 192.668716 192.038513 192.08844 183.788681 192.108536 C 179.343491 192.119354 176.951416 195.797913 176.999939 201.126709 C 177.039154 205.435333 179.793228 208.893631 184.007675 208.932892 C 200.663452 209.088089 217.322372 209.087906 233.97818 208.93364 C 238.222031 208.894348 240.952972 205.471344 241.000488 201.125305 C 241.058624 195.809204 238.657135 192.119797 234.209412 192.108871 C 225.959457 192.088593 217.708054 192.668823 208.540497 192.999008 M 177.000015 294.822205 C 177.00116 302.596466 179.392487 304.997406 187.154785 304.999054 C 201.775467 305.002167 216.396149 305.002991 231.01683 304.998627 C 238.066986 304.99649 240.989517 302.539703 241.000473 296.628998 C 241.01178 290.527557 238.175995 287.881622 231.267532 288.035706 C 223.367081 288.211914 215.472778 288.913422 207.575623 288.916382 C 199.844772 288.919281 192.114441 288.120758 184.382401 288.093384 C 180.735336 288.080444 177.95636 290.125275 177.000015 294.822205 M 218.614365 383.999298 C 215.028976 384.33078 211.438736 384.982086 207.859177 384.927887 C 200.107773 384.810516 192.363739 384.146423 184.613022 384.067932 C 179.638107 384.017578 176.984467 387.368652 176.999954 392.796082 C 177.01384 397.667908 179.869522 400.931305 184.67128 400.961029 C 200.822189 401.061127 216.974411 401.05484 233.125443 400.96701 C 238.240204 400.939178 241.006683 397.771454 241.000534 392.484314 C 240.994354 387.171722 238.245514 384.151276 233.073441 384.023651 C 228.580383 383.912781 224.082443 384.000763 218.614365 383.999298 z"
      stroke-linecap="round"
    />
  </g>
  <g transform="matrix(2.11 0 0 2.11 399.95 472.54)" id="Layer_1">
    <path
      style="
        stroke: none;
        stroke-width: 1;
        stroke-dasharray: none;
        stroke-linecap: butt;
        stroke-dashoffset: 0;
        stroke-linejoin: miter;
        stroke-miterlimit: 4;
        fill: rgb(89, 89, 89);
        fill-rule: nonzero;
        opacity: 1;
      "
      vector-effect="non-scaling-stroke"
      transform=" translate(-209.46, -224.02)"
      d="M 64.899292 426.097931 C 50.723076 419.879547 37.327534 413.157288 27.036579 401.581421 C 20.793707 394.559052 16.887741 386.950317 16.904049 377.120483 C 17.063593 280.957733 17.062101 184.794525 16.897327 88.631805 C 16.882092 79.739105 20.103334 72.524818 25.514582 66.053078 C 35.891266 53.642765 49.838539 46.386581 64.302475 40.026714 C 68.35067 38.246704 72.621941 36.942173 76.852707 35.616924 C 82.689819 33.788498 87.296867 35.379948 88.715851 39.505653 C 90.657997 45.152439 88.33873 49.744961 82.085564 51.856129 C 69.181366 56.212776 56.730881 61.465771 45.994957 70.039841 C 39.436958 75.277275 33.187286 80.860245 33.984241 90.497261 C 34.688541 99.013847 40.645416 104.221039 46.67849 108.697159 C 60.934139 119.273857 77.319038 125.615913 94.403931 129.909302 C 109.070526 133.594971 123.844543 136.993454 138.729248 139.623749 C 149.421951 141.513245 160.359421 142.142822 171.216522 142.943558 C 183.432358 143.844513 195.678635 144.772964 207.915253 144.823563 C 219.321213 144.870728 230.739548 143.898193 242.137863 143.15184 C 250.03746 142.634598 257.989197 142.205612 265.782898 140.920166 C 284.299988 137.866135 302.945984 135.182419 321.146759 130.738831 C 338.794983 126.430161 356.080505 120.286491 370.76651 108.957085 C 374.884033 105.780655 378.586487 101.76432 381.584595 97.503624 C 387.226868 89.485229 383.939056 81.815773 377.873993 75.390205 C 366.605743 63.452065 351.878387 57.565441 336.919464 52.101349 C 315.746277 44.367355 293.717865 40.112885 271.496765 37.264385 C 255.936539 35.269737 240.163864 34.723827 224.463455 34.098297 C 212.250717 33.611717 199.965607 33.394398 187.780121 34.148022 C 171.15686 35.176105 154.577164 37.059757 138.02005 38.939884 C 130.191406 39.828857 122.462654 41.585686 114.68084 42.903187 C 110.1782 43.665508 106.085281 41.069736 105.106262 36.925442 C 103.919998 31.903889 105.986267 27.30998 110.707199 26.308535 C 120.362595 24.260347 130.082275 22.372559 139.863983 21.097788 C 152.787766 19.413536 165.773254 18.016869 178.776276 17.187162 C 188.570206 16.562227 198.43541 16.887074 208.265289 17.03241 C 222.551407 17.243629 236.890579 16.986063 251.107193 18.149603 C 283.699066 20.817047 315.937714 25.95063 346.824127 37.12191 C 362.201874 42.683857 376.966522 49.780773 388.97876 61.450123 C 397.779327 69.999466 401.923431 80.536446 401.950562 92.580048 C 402.065338 143.577835 402.031006 194.576111 401.945068 245.574005 C 401.937347 250.157455 401.802612 255.038773 396.232391 257.054291 C 390.003021 259.30835 385.102173 256.157471 385.033508 249.582306 C 384.920441 238.758087 385.002838 227.931824 385.002838 217.03508 C 377.114807 221.460266 369.73349 226.47821 361.677673 229.915176 C 349.555267 235.087097 337.016663 239.315933 324.530334 243.58075 C 321.165344 244.730087 316.829712 245.190765 314.849915 241.125015 C 313.595764 238.549377 313.049866 235.120163 313.600281 232.35524 C 313.961121 230.542618 316.60022 228.599564 318.643463 227.801056 C 331.519928 222.768799 344.851166 218.761963 357.346619 212.944092 C 364.957184 209.40062 372.031647 203.916138 378.017181 197.965897 C 381.6521 194.352386 384.494141 188.254181 384.68399 183.160049 C 385.428375 163.189011 384.979675 143.173416 384.955475 123.174377 C 384.954742 122.582687 384.745453 121.991249 384.58313 121.134193 C 378.492889 124.906952 373.005829 128.857681 367.05246 131.89418 C 346.327667 142.464813 324.269836 149.270752 301.366577 152.876648 C 282.488403 155.848862 263.444916 157.805222 244.445755 159.956207 C 237.878143 160.699753 231.226227 160.858856 224.607925 160.957748 C 214.042969 161.115631 203.44841 161.467682 192.912537 160.892166 C 176.432602 159.991913 159.919601 158.958771 143.554398 156.912048 C 128.235184 154.996124 112.955933 152.275787 97.904236 148.836578 C 81.491188 145.086304 65.492584 139.678741 50.539612 131.737076 C 45.057892 128.825684 39.976662 125.160255 34.25742 121.551483 C 34.160416 123.445885 34.011726 125.01384 34.010296 126.581932 C 33.993866 144.581238 34.5765 162.605759 33.79108 180.57074 C 33.292 191.986252 39.001957 198.995575 47.159859 204.980728 C 65.525444 218.45491 86.907082 224.968994 108.668198 229.755554 C 125.820656 233.528381 143.355469 235.738815 160.813873 237.882355 C 172.277832 239.289917 183.900848 239.658142 195.465668 239.923294 C 209.859131 240.253311 224.316711 240.754013 238.653656 239.793579 C 254.742096 238.715836 270.735382 236.155731 286.750854 234.091522 C 291.100922 233.530853 296.007721 235.807419 296.913849 239.325455 C 298.397491 245.085632 296.125977 249.682434 290.565857 250.861816 C 284.142242 252.22438 277.604279 253.092133 271.087952 253.966064 C 242.007721 257.866241 212.741043 257.504883 183.542267 256.779663 C 167.938736 256.39212 152.27565 254.449127 136.849442 251.924835 C 119.4953 249.085052 102.262856 245.261871 85.188454 241.01767 C 66.994965 236.495285 49.957104 229.052032 34.951 217.495865 C 34.585361 217.214294 34.141876 217.033829 33.256004 216.538589 C 33.159794 218.42775 33.011906 219.998169 33.010292 221.568741 C 32.993366 238.0681 33.675041 254.602982 32.80957 271.056824 C 31.947205 287.45166 40.139687 297.367493 53.172165 305.052277 C 74.985283 317.914795 98.914879 324.659027 123.550262 328.837219 C 140.424332 331.699066 157.542221 333.196533 174.588654 334.936157 C 182.488022 335.74234 190.474472 335.852997 198.425659 335.957031 C 210.658386 336.117065 222.897461 336.152649 235.128464 335.936646 C 241.398697 335.825928 247.674652 335.213745 253.915329 334.529938 C 258.440155 334.034149 263.364197 337.053314 263.970154 341.158325 C 264.76947 346.573059 262.320465 350.476562 256.982544 350.943512 C 246.276962 351.880035 235.537659 352.647675 224.797913 352.921448 C 211.806854 353.252625 198.764084 353.617126 185.810699 352.844299 C 169.532074 351.873077 153.205078 350.498535 137.112137 347.951141 C 118.928055 345.072784 100.706573 341.673981 83.008736 336.697266 C 65.934021 331.895752 49.379791 325.054504 35.216473 313.729828 C 34.743614 313.351746 34.209911 313.049744 32.999821 312.241669 C 32.999821 316.026031 32.999817 319.120361 32.999817 322.214691 C 32.999817 336.880798 33.748936 351.595367 32.803871 366.200348 C 31.705124 383.180267 40.008907 393.864441 53.784321 401.211426 C 62.921467 406.084625 72.65271 409.842773 82.110657 414.116333 C 85.272675 415.545044 88.559746 416.719818 89.013054 421.038177 C 89.805885 428.591156 85.809349 432.559662 78.280205 430.805664 C 73.828484 429.768555 69.607697 427.740234 64.899292 426.097931 z"
      stroke-linecap="round"
    />
  </g>
  <g transform="matrix(2.11 0 0 2.11 770.2 812.14)" id="Layer_1">
    <path
      style="
        stroke: none;
        stroke-width: 1;
        stroke-dasharray: none;
        stroke-linecap: butt;
        stroke-dashoffset: 0;
        stroke-linejoin: miter;
        stroke-miterlimit: 4;
        fill: rgb(89, 89, 89);
        fill-rule: nonzero;
        opacity: 1;
      "
      vector-effect="non-scaling-stroke"
      transform=" translate(-384.99, -385.02)"
      d="M 394.893463 479.999695 C 411.410461 477.941589 426.265167 472.684326 439.391357 463.068878 C 444.76004 459.136047 450.527008 460.001221 453.161621 463.733124 C 456.092987 467.885498 454.903412 473.720703 449.949677 477.050354 C 430.314636 490.247864 409.060608 497.064178 385.224213 497.168427 C 358.856293 497.283813 335.401672 489.439697 315.032623 473.241211 C 293.795349 456.352234 280.041382 434.482452 274.928436 407.447632 C 271.414917 388.869873 271.869354 370.42099 277.177917 352.405823 C 281.5802 337.466156 289.10965 324.007324 299.349579 311.978546 C 311.074432 298.205383 325.191528 287.99173 341.735535 281.08551 C 360.43103 273.281189 379.856476 271.447632 399.970642 273.848694 C 419.027374 276.123596 436.257202 282.995575 451.35199 294.289886 C 472.785095 310.32663 487.396423 331.416565 494.039368 357.7099 C 497.272278 370.506165 497.909149 383.552185 496.814545 396.481628 C 495.123291 416.457672 487.793701 434.673279 476.309204 451.125977 C 473.450317 455.221588 468.42392 456.195221 464.586548 453.852356 C 460.253082 451.206543 459.275482 446.629669 461.781006 441.642242 C 466.705811 431.838959 473.052948 422.436737 476.118958 412.072083 C 485.205444 381.354797 479.909058 352.650269 460.418518 326.963379 C 445.914978 307.848877 426.53653 295.608673 403.196014 291.351501 C 375.477142 286.295776 349.588531 291.971771 326.856049 309.580566 C 309.574554 322.966919 297.825348 340.204407 292.497498 361.228546 C 285.159332 390.185577 290.519958 417.235657 308.085876 441.436584 C 319.738159 457.490143 335.293762 468.909546 354.052795 475.351196 C 361.337921 477.852814 369.20694 478.925964 376.905762 479.861572 C 382.669373 480.561981 388.586456 479.999786 394.893463 479.999695 z"
      stroke-linecap="round"
    />
  </g>
  <g transform="matrix(2.11 0 0 2.11 770.92 811.98)" id="Layer_1">
    <path
      style="
        stroke: none;
        stroke-width: 1;
        stroke-dasharray: none;
        stroke-linecap: butt;
        stroke-dashoffset: 0;
        stroke-linejoin: miter;
        stroke-miterlimit: 4;
        fill: rgb(89, 89, 89);
        fill-rule: nonzero;
        opacity: 1;
      "
      vector-effect="non-scaling-stroke"
      transform=" translate(-385.33, -384.94)"
      d="M 340.252075 338.009979 C 345.398956 335.954651 349.42218 336.763672 353.114838 340.530151 C 363.491882 351.114502 374.032837 361.538147 384.822571 372.338898 C 385.969757 371.326752 387.09021 370.438202 388.096344 369.434998 C 398.006104 359.553802 407.850647 349.60672 417.811493 339.777435 C 423.244476 334.416229 431.962372 336.061859 433.278839 343.088257 C 433.811646 345.931976 431.937836 350.121979 429.789459 352.41745 C 420.572784 362.265137 410.843811 371.633148 401.309082 381.183502 C 400.151184 382.343231 399.038757 383.54837 397.61499 385.035645 C 408.670837 396.111816 419.584869 407.039001 430.489838 417.97522 C 433.610687 421.105042 435.092407 424.484161 432.664307 428.839569 C 429.982422 433.650116 423.418854 434.847198 419.456573 430.919434 C 408.926941 420.481476 398.461365 409.978882 387.995178 399.477173 C 387.187469 398.666687 386.57431 397.662292 385.764099 396.609528 C 374.385162 408.025208 363.469238 419.018127 352.501312 429.958893 C 348.188965 434.26062 342.44928 434.299438 338.682892 430.192627 C 335.693665 426.933228 336.266479 421.335297 340.141724 417.43161 C 349.648987 407.85434 359.194092 398.314362 368.777435 388.813324 C 369.94516 387.655609 371.440094 386.827911 373.223206 385.526184 C 361.947784 374.313751 351.440887 363.953461 341.040802 353.48703 C 335.70401 348.116272 335.39563 342.815491 340.252075 338.009979 z"
      stroke-linecap="round"
    />
  </g>
  <g transform="matrix(2.11 0 0 2.11 351.28 919.98)" id="Layer_1">
    <path
      style="
        stroke: none;
        stroke-width: 1;
        stroke-dasharray: none;
        stroke-linecap: butt;
        stroke-dashoffset: 0;
        stroke-linejoin: miter;
        stroke-miterlimit: 4;
        fill: rgb(89, 89, 89);
        fill-rule: nonzero;
        opacity: 1;
      "
      vector-effect="non-scaling-stroke"
      transform=" translate(-186.39, -436.14)"
      d="M 210 449 C 204.336426 449 199.147324 449.333557 194.013824 448.940674 C 174.595291 447.454498 155.175247 445.929382 135.796967 444.004272 C 127.803665 443.210205 119.883675 441.52243 111.988342 439.949921 C 106.263077 438.809631 103.72007 434.834045 104.920288 429.732941 C 106.173134 424.408173 110.092186 422.45932 115.843857 423.359711 C 131.123627 425.751709 146.391785 428.753906 161.780502 429.787537 C 184.447571 431.31012 207.211975 431.576141 229.941559 431.87674 C 238.495712 431.989838 247.076569 430.797424 255.630035 430.030548 C 263.022949 429.367706 268.859192 431.507141 268.069916 439.725372 C 267.611084 444.502472 264.752319 446.677643 260.685425 446.892914 C 243.966629 447.777985 227.230042 448.32724 210 449 z"
      stroke-linecap="round"
    />
  </g>
  <g transform="matrix(2.11 0 0 2.11 398.98 423.1)" id="Layer_1">
    <path
      style="
        stroke: none;
        stroke-width: 1;
        stroke-dasharray: none;
        stroke-linecap: butt;
        stroke-dashoffset: 0;
        stroke-linejoin: miter;
        stroke-miterlimit: 4;
        fill: rgb(89, 89, 89);
        fill-rule: nonzero;
        opacity: 1;
      "
      vector-effect="non-scaling-stroke"
      transform=" translate(-209, -200.58)"
      d="M 208.998871 192.999023 C 217.708054 192.668823 225.959457 192.088593 234.209412 192.108871 C 238.657135 192.119797 241.058624 195.809204 241.000488 201.125305 C 240.952972 205.471344 238.222031 208.894348 233.97818 208.93364 C 217.322372 209.087906 200.663452 209.088089 184.007675 208.932892 C 179.793228 208.893631 177.039154 205.435333 176.999939 201.126709 C 176.951416 195.797913 179.343491 192.119354 183.788681 192.108536 C 192.038513 192.08844 200.28981 192.668716 208.998871 192.999023 z"
      stroke-linecap="round"
    />
  </g>
  <g transform="matrix(2.11 0 0 2.11 398.98 625.46)" id="Layer_1">
    <path
      style="
        stroke: none;
        stroke-width: 1;
        stroke-dasharray: none;
        stroke-linecap: butt;
        stroke-dashoffset: 0;
        stroke-linejoin: miter;
        stroke-miterlimit: 4;
        fill: rgb(89, 89, 89);
        fill-rule: nonzero;
        opacity: 1;
      "
      vector-effect="non-scaling-stroke"
      transform=" translate(-209, -296.52)"
      d="M 177.000885 294.399597 C 177.95636 290.125275 180.735336 288.080444 184.382401 288.093384 C 192.114441 288.120758 199.844772 288.919281 207.575623 288.916382 C 215.472778 288.913422 223.367081 288.211914 231.267532 288.035706 C 238.175995 287.881622 241.01178 290.527557 241.000473 296.628998 C 240.989517 302.539703 238.066986 304.99649 231.01683 304.998627 C 216.396149 305.002991 201.775467 305.002167 187.154785 304.999054 C 179.392487 304.997406 177.00116 302.596466 177.000885 294.399597 z"
      stroke-linecap="round"
    />
  </g>
  <g transform="matrix(2.11 0 0 2.11 398.98 827.93)" id="Layer_1">
    <path
      style="
        stroke: none;
        stroke-width: 1;
        stroke-dasharray: none;
        stroke-linecap: butt;
        stroke-dashoffset: 0;
        stroke-linejoin: miter;
        stroke-miterlimit: 4;
        fill: rgb(89, 89, 89);
        fill-rule: nonzero;
        opacity: 1;
      "
      vector-effect="non-scaling-stroke"
      transform=" translate(-209, -392.5)"
      d="M 219.10051 384.000092 C 224.082443 384.000763 228.580383 383.912781 233.073441 384.023651 C 238.245514 384.151276 240.994354 387.171722 241.000534 392.484314 C 241.006683 397.771454 238.240204 400.939178 233.125443 400.96701 C 216.974411 401.05484 200.822189 401.061127 184.67128 400.961029 C 179.869522 400.931305 177.01384 397.667908 176.999954 392.796082 C 176.984467 387.368652 179.638107 384.017578 184.613022 384.067932 C 192.363739 384.146423 200.107773 384.810516 207.859177 384.927887 C 211.438736 384.982086 215.028976 384.33078 219.10051 384.000092 z"
      stroke-linecap="round"
    />
  </g>
</svg>
