<svg width="1080" height="1080" viewBox="0 0 1080 1080" fill="#595959" xmlns="http://www.w3.org/2000/svg">
  <g id="no-data-error">
    <g id="Error">
      <path id="Cross"
        d="M733.806 722.958C744.665 718.621 753.154 720.328 760.946 728.275C782.842 750.608 805.083 772.602 827.849 795.392C830.27 793.256 832.634 791.381 834.757 789.264C855.667 768.415 876.439 747.427 897.456 726.687C908.92 715.375 927.314 718.847 930.092 733.673C931.216 739.673 927.262 748.514 922.729 753.357C903.282 774.136 882.754 793.903 862.636 814.054C860.193 816.501 857.845 819.044 854.841 822.182C878.169 845.553 901.198 868.609 924.207 891.684C930.792 898.288 933.919 905.418 928.795 914.608C923.137 924.758 909.287 927.284 900.927 918.997C878.71 896.973 856.627 874.812 834.543 852.653C832.839 850.943 831.545 848.824 829.836 846.603C805.826 870.69 782.794 893.885 759.651 916.97C750.552 926.047 738.442 926.128 730.495 917.463C724.187 910.586 725.396 898.774 733.573 890.537C753.633 870.329 773.773 850.2 793.994 830.153C796.458 827.71 799.612 825.964 803.375 823.217C779.583 799.559 757.414 777.698 735.47 755.614C724.209 744.282 723.558 733.097 733.806 722.958Z" />
      <path id="Circle"
        d="M849.096 1022.55C883.947 1018.2 915.291 1007.11 942.987 986.823C954.315 978.525 966.483 980.35 972.042 988.225C978.227 996.986 975.717 1009.3 965.265 1016.32C923.835 1044.17 878.989 1058.55 828.694 1058.77C773.058 1059.02 723.569 1042.47 680.59 1008.29C635.779 972.651 606.758 926.506 595.97 869.462C588.557 830.263 589.515 791.336 600.717 753.324C610.005 721.801 625.892 693.403 647.499 668.023C672.238 638.961 702.025 617.41 736.933 602.838C776.381 586.371 817.368 582.502 859.809 587.569C900.019 592.369 936.374 606.869 968.224 630.7C1013.45 664.537 1044.28 709.037 1058.29 764.516C1065.12 791.516 1066.46 819.043 1064.15 846.324C1060.58 888.474 1045.12 926.908 1020.88 961.624C1014.85 970.265 1004.25 972.32 996.149 967.376C987.005 961.794 984.942 952.136 990.229 941.613C1000.62 920.928 1014.01 901.089 1020.48 879.22C1039.65 814.406 1028.48 753.84 987.354 699.641C956.752 659.309 915.863 633.482 866.615 624.5C808.128 613.832 753.503 625.808 705.537 662.963C669.073 691.208 644.283 727.579 633.041 771.94C617.557 833.039 628.868 890.115 665.932 941.179C690.519 975.052 723.341 999.147 762.922 1012.74C778.294 1018.02 794.898 1020.28 811.142 1022.26C823.303 1023.73 835.789 1022.55 849.096 1022.55Z" />
    </g>
    <g id="Database">
      <path id="Drawer 3"
        d="M478.292 819.995C488.804 819.997 498.295 819.811 507.775 820.045C518.688 820.314 524.488 826.687 524.501 837.897C524.514 849.053 518.677 855.737 507.885 855.795C473.806 855.981 439.725 855.994 405.646 855.783C395.515 855.72 389.489 848.834 389.46 838.555C389.427 827.103 395.026 820.032 405.523 820.138C421.878 820.304 438.217 821.705 454.573 821.953C462.126 822.067 469.701 820.693 478.292 819.995Z" />
      <path id="Drawer 2"
        d="M389.462 630.986C391.478 621.967 397.342 617.653 405.037 617.68C421.351 617.738 437.662 619.422 453.975 619.416C470.638 619.41 487.295 617.93 503.964 617.558C518.541 617.233 524.525 622.816 524.501 635.69C524.478 648.162 518.311 653.345 503.435 653.35C472.586 653.359 441.736 653.357 410.887 653.351C394.508 653.347 389.462 648.281 389.462 630.986Z" />
      <path id="Drawer 1"
        d="M456.978 417.104C475.354 416.407 492.764 415.183 510.172 415.226C519.557 415.249 524.624 423.034 524.501 434.251C524.401 443.421 518.639 450.643 509.684 450.726C474.54 451.052 439.39 451.052 404.246 450.725C395.354 450.642 389.543 443.345 389.46 434.254C389.358 423.01 394.405 415.248 403.784 415.225C421.191 415.183 438.602 416.407 456.978 417.104Z" />
      <g id="Structure">
        <path id="Vector"
          d="M491 957C466.844 957.71 446.5 957 404 955.5C361.5 954 343.417 950.636 302.529 946.574C285.663 944.898 268.952 941.337 252.293 938.019C240.212 935.613 234.846 927.224 237.379 916.461C240.022 905.226 248.292 901.114 260.428 903.014C292.668 908.061 324.884 914.395 357.354 916.576C404 920.985 464 922 501.174 920.985C519.223 921.223 537.329 918.707 555.377 917.089C570.976 915.69 583.29 920.205 581.625 937.545C580.657 947.625 574.625 952.214 566.043 952.669C530.767 954.536 515.156 956.29 491 957Z" />
        <path id="Vector_2"
          d="M152.822 909.067C122.91 895.946 94.6454 881.762 72.9315 857.337C59.7591 842.52 51.5175 826.465 51.5519 805.724C51.8885 602.821 51.8854 399.917 51.5377 197.013C51.5056 178.25 58.3024 163.027 69.7201 149.372C91.6149 123.186 121.044 107.876 151.563 94.4564C160.104 90.7006 169.117 87.948 178.044 85.1517C190.36 81.2938 200.081 84.6517 203.075 93.357C207.173 105.272 202.279 114.962 189.085 119.416C161.857 128.609 135.587 139.693 112.934 157.784C99.0963 168.835 87 182.051 87 202C87 220.051 101.646 229.906 114.376 239.351C144.455 261.668 179.028 275.05 215.077 284.109C246.023 291.885 277.196 299.056 308.603 304.606C331.165 308.593 354.243 309.921 377.151 311.611C402.927 313.512 428.766 315.471 454.586 315.578C478.652 315.677 502.745 313.625 526.795 312.05C543.463 310.959 560.242 310.054 576.686 307.342C615.757 300.898 655.1 295.235 693.504 285.859C730.742 276.768 767.214 263.805 798.202 239.899C806.89 233.197 814.702 224.723 821.028 215.733C832.933 198.814 825.996 182.631 813.198 169.073C789.422 143.884 758.348 131.463 726.784 119.934C682.109 103.615 635.629 94.6382 588.742 88.6279C555.91 84.4192 522.63 83.2673 489.502 81.9474C463.733 80.9207 437.812 80.4622 412.1 82.0524C377.025 84.2216 342.042 88.1961 307.107 92.1632C290.588 94.0389 274.281 97.7458 257.861 100.526C248.36 102.134 239.724 96.6572 237.659 87.9127C235.156 77.3172 239.515 67.6241 249.477 65.511C269.849 61.1894 290.358 57.2061 310.997 54.5164C338.267 50.9626 365.666 48.0156 393.102 46.2649C413.767 44.9463 434.583 45.6318 455.324 45.9384C485.468 46.3841 515.723 45.8406 545.72 48.2957C614.489 53.924 682.513 64.7559 747.683 88.3273C780.13 100.063 811.284 115.037 836.629 139.66C855.199 157.699 863.943 179.932 864 205.344C864.242 312.949 864.17 420.556 863.988 528.161C863.972 537.832 863.688 548.132 851.935 552.385C838.791 557.141 828.45 550.492 828.305 536.619C828.066 513.78 828.24 490.936 828.24 467.944C811.597 477.281 796.022 487.869 779.024 495.121C753.446 506.034 726.989 514.957 700.643 523.955C693.543 526.381 684.395 527.353 680.218 518.774C677.571 513.339 676.42 506.104 677.581 500.27C678.342 496.445 683.911 492.345 688.222 490.66C715.391 480.042 743.52 471.588 769.886 459.312C785.944 451.835 800.871 440.263 813.501 427.708C821.17 420.084 827.167 407.216 827.568 396.468C829.138 354.329 828.191 312.096 828.14 269.898C828.139 268.65 827.697 267.402 827.355 265.593C814.504 273.554 802.927 281.89 790.365 288.297C746.636 310.601 700.094 324.961 651.768 332.57C611.935 338.841 571.753 342.969 531.665 347.508C517.807 349.077 503.772 349.412 489.807 349.621C467.515 349.954 445.16 350.697 422.93 349.483C388.157 347.583 353.315 345.403 318.784 341.084C286.461 337.042 254.221 331.302 222.462 324.045C187.831 316.132 148.551 300.866 117 284.109C105.434 277.966 98.5 272 87 263.5C86.7953 267.497 87.003 280.8 87 284.109C86.9653 322.109 87.1835 370 87.1835 391.004C87.1835 415 98.1785 429.881 115.392 442.509C154.143 470.94 199.258 484.685 245.174 494.784C281.366 502.745 318.364 507.409 355.202 511.932C379.391 514.902 403.915 515.679 428.317 516.238C458.687 516.935 489.193 517.991 519.444 515.965C553.39 513.69 587.136 508.289 620.929 503.933C630.107 502.75 640.461 507.554 642.373 514.977C645.503 527.131 640.71 536.83 628.978 539.319C615.424 542.194 601.629 544.024 587.88 545.868C526.521 554.098 464.768 553.335 403.159 551.805C370.235 550.987 337.186 546.888 304.637 541.561C268.019 535.57 231.659 527.503 195.632 518.547C157.244 509.005 144.5 503.5 121.5 491.5C94.7959 477.567 87 467 85.5361 465.397C85.5361 469.397 85.5395 474.196 85.5361 477.51C85.5004 512.324 85.1125 547.218 85.1125 581.93C85.1125 616.642 100.579 637.445 128.078 653.66C174.103 680.8 224.595 695.031 276.575 703.847C312.18 709.885 348.298 713.045 384.266 716.715C400.934 718.416 417.785 718.65 434.562 718.869C460.374 719.207 486.198 719.282 512.005 718.826C525.236 718.593 538.478 717.301 551.646 715.858C561.193 714.812 571.583 721.183 572.861 729.844C574.548 741.269 569.381 749.506 558.117 750.491C535.529 752.467 512.869 754.087 490.208 754.664C462.797 755.363 435.277 756.132 407.945 754.502C373.597 752.452 339.147 749.552 305.191 744.177C266.823 738.104 228.375 730.932 191.033 720.431C155.005 710.3 120.076 695.865 90.1911 671.97C89.1934 671.172 88.0673 670.535 85.514 668.83C85.514 676.815 85.514 683.344 85.514 689.873C85.514 720.819 87.0946 751.866 85.1005 782.683C82.7822 818.51 100.303 841.054 129.369 856.556C148.649 866.839 169.182 874.768 189.138 883.786C195.81 886.8 202.745 889.279 203.702 898.391C205.375 914.327 196.942 922.701 181.056 919C171.662 916.812 162.757 912.532 152.822 909.067Z" />
      </g>
    </g>
  </g>
</svg>