<svg version="1.1" id="Layer_1" xmlns="http://www.w3.org/2000/svg" xmlns:xlink="http://www.w3.org/1999/xlink" x="0px"
  y="0px" width="100%" viewBox="185 120 655 605" xml:space="preserve" fill="white">
  <path stroke="none" d="
  M837.344482,497.000061 
	C837.346069,527.662048 837.259766,557.824341 837.369873,587.985962 
	C837.525391,630.606445 820.285156,664.765320 787.821411,691.897522 
	C764.010559,711.797913 736.312927,721.058594 705.836731,721.136963 
	C577.025024,721.468201 448.209229,721.791321 319.400604,721.082764 
	C252.210953,720.713257 201.435806,671.880432 190.514557,613.062073 
	C189.264236,606.328247 188.641739,599.601685 188.644409,592.754761 
	C188.688843,479.272400 188.665161,365.790039 188.683365,252.307663 
	C188.693192,190.962936 235.087051,135.584122 295.530701,124.583282 
	C306.200806,122.641312 316.907135,121.624756 327.756805,121.628036 
	C453.237274,121.665932 578.719604,121.249359 704.197388,121.829094 
	C757.883606,122.077133 797.390991,147.800812 823.215271,194.441711 
	C831.250854,208.954742 835.208618,224.912704 836.541565,241.603424 
	C837.233765,250.270813 837.266418,258.894073 837.274414,267.535950 
	C837.344788,343.857269 837.332275,420.178680 837.344482,497.000061 
  M207.347641,555.499939 
	C207.347473,565.665771 207.443924,575.832825 207.316620,585.997070 
	C207.214371,594.162231 207.200912,602.339600 208.751572,610.360535 
	C219.974197,668.410034 273.309723,702.432495 321.713593,702.206177 
	C450.198669,701.605164 578.688293,701.962158 707.176147,701.980469 
	C729.309265,701.983582 749.708923,695.936401 767.846191,683.494141 
	C800.834106,660.864319 818.618164,629.674194 818.633850,589.170593 
	C818.676880,478.181030 818.643066,367.191437 818.656738,256.201874 
	C818.658936,238.494141 815.740479,221.373154 807.729797,205.462784 
	C786.940002,164.170944 753.239502,140.992737 707.137634,140.660614 
	C579.322937,139.739899 451.497253,140.361359 323.676025,140.290176 
	C309.528442,140.282288 295.882324,142.678024 282.627411,147.462051 
	C237.785980,163.646500 207.349670,206.957977 207.348724,254.528061 
	C207.346725,354.518677 207.348099,454.509277 207.347641,555.499939 
  z" />
  <path stroke="none" d="
  M678.646118,414.999908 
	C678.648132,386.170013 678.642578,357.840118 678.656982,329.510223 
	C678.660889,321.794098 680.752808,319.655914 688.333374,319.646729 
	C706.664490,319.624542 724.995605,319.617798 743.326721,319.643860 
	C751.076538,319.654846 753.341187,321.967560 753.341980,329.841034 
	C753.351318,423.662994 753.348083,517.484985 753.350281,611.306946 
	C753.350464,618.630066 753.357910,618.629333 760.706665,618.632385 
	C764.872742,618.634155 769.041504,618.732788 773.204285,618.617981 
	C778.325317,618.476746 780.780396,621.276733 781.746216,625.916443 
	C782.595093,629.993896 780.303528,634.497498 776.453003,636.154541 
	C774.108887,637.163208 771.614624,637.237427 769.094482,637.236511 
	C669.940002,637.200928 570.785522,637.185181 471.631042,637.159180 
	C463.101135,637.156921 457.686768,631.133850 460.258698,624.467285 
	C461.706299,620.714966 464.308868,618.553772 468.612793,618.623352 
	C475.443298,618.733887 482.289368,618.380737 489.105408,618.709778 
	C493.698090,618.931519 494.737946,617.013733 494.712646,612.842651 
	C494.571136,589.513000 494.638275,566.182068 494.638306,542.851562 
	C494.638306,530.186401 494.626831,517.521240 494.658813,504.856201 
	C494.676575,497.837311 497.785065,494.026154 504.760010,493.921936 
	C522.753052,493.653107 540.757019,493.590790 558.747681,493.927765 
	C566.460327,494.072266 569.293701,497.701080 569.297607,505.495850 
	C569.315491,541.158203 569.382507,576.820984 569.199524,612.482422 
	C569.175171,617.226868 570.409363,618.904602 575.324463,618.712830 
	C588.314819,618.206055 586.640198,620.419922 586.651245,607.146667 
	C586.702026,546.154053 586.664673,485.161438 586.667603,424.168823 
	C586.668030,414.719666 588.699707,412.665039 598.014709,412.657166 
	C615.345947,412.642456 632.677124,412.632599 650.008362,412.648651 
	C658.450562,412.656494 661.318542,415.708252 661.318115,424.665039 
	C661.315125,486.824127 661.300964,548.983215 661.292969,611.142273 
	C661.291992,618.648254 661.299927,618.704590 668.974121,618.604797 
	C679.160583,618.472412 678.649719,620.248047 678.649292,608.973267 
	C678.647095,544.482117 678.646912,479.991028 678.646118,414.999908 
  z" />
  <path stroke="none" d="
  M444.899323,363.041443 
	C470.125793,378.666748 495.035767,394.112671 519.958984,409.537231 
	C527.799988,414.389893 528.443848,416.660583 522.473877,424.425446 
	C504.617950,447.649933 482.612701,465.135406 454.436035,474.713409 
	C373.172455,502.336975 287.178101,455.205048 268.164581,371.366425 
	C252.732498,303.319855 283.270538,239.282791 342.304352,208.845200 
	C359.636749,199.908661 378.189087,194.829498 397.863892,194.665131 
	C405.468292,194.601593 407.240356,196.425949 407.245239,204.079269 
	C407.272705,247.065964 407.360687,290.053009 407.185272,333.038910 
	C407.165588,337.860565 408.801392,340.541840 412.844940,342.951294 
	C423.570740,349.342529 434.025421,356.188690 444.899323,363.041443 
  z" />
  <path stroke="none" d="
  M574.341431,315.077637 
	C575.459717,343.696289 569.522034,370.061615 554.674988,394.197815 
	C554.151489,395.048798 553.630371,395.902374 553.073669,396.731537 
	C547.246826,405.409760 541.692017,406.562653 532.913330,400.985504 
	C518.303040,391.703430 503.741852,382.341583 489.040283,373.205994 
	C468.964752,360.731049 448.840179,348.331848 428.596161,336.133270 
	C423.032013,332.780426 420.497070,328.631500 420.517365,321.962250 
	C420.606537,292.655273 420.198029,263.347229 420.141235,234.039246 
	C420.112823,219.388260 420.424866,204.736160 420.637939,190.085373 
	C420.733215,183.532043 423.547028,180.696136 430.166229,180.684174 
	C502.910706,180.552780 559.980652,229.720169 572.420593,297.799835 
	C573.435242,303.353088 574.351807,308.917725 574.341431,315.077637 
  M552.118042,291.277527 
	C545.804199,266.869598 533.148132,246.355896 514.156372,229.798096 
	C494.622253,212.767380 471.845123,203.066437 446.116791,200.423508 
	C439.717529,199.766174 439.232239,200.511948 439.230103,206.925629 
	C439.218231,242.738419 439.301727,278.551483 439.150299,314.363586 
	C439.133087,318.425354 440.589233,320.652527 443.933594,322.708771 
	C471.590607,339.714050 499.246338,356.723145 526.498718,374.378418 
	C530.753357,377.134766 534.699890,380.538300 540.127625,382.339874 
	C556.133972,353.674164 559.472229,323.596558 552.118042,291.277527 
  z" />
  <path stroke="none" d="
  M467.335693,315.966370 
	C461.534607,310.897095 456.002655,306.091156 450.555298,301.191223 
	C445.957123,297.055084 445.351990,291.248260 448.944122,286.998322 
	C452.471161,282.825439 457.817230,282.589966 462.759308,286.459137 
	C464.462280,287.792450 466.253448,289.096619 467.652893,290.717529 
	C471.039825,294.640564 473.417328,293.610809 476.246490,289.877441 
	C483.384583,280.457794 490.830444,271.271332 498.153534,261.991852 
	C501.954010,257.176056 506.612854,256.318939 511.185486,259.592773 
	C515.708313,262.830902 516.986694,268.673248 513.457886,273.220856 
	C502.535889,287.296082 491.441956,301.241608 480.195831,315.059326 
	C476.864716,319.152100 473.436493,319.147125 467.335693,315.966370 
  z" />
</svg>