<svg width="3334" height="512" viewBox="0 0 3334 512" fill="white" xmlns="http://www.w3.org/2000/svg">
  <g id="Frame 1" clip-path="url(#clip0_0_1)">
    <g id="Group">
      <g id="RT Logo" clip-path="url(#clip1_0_1)">
        <path id="Bars"
          d="M385.873 249.653C385.875 225.255 385.87 201.28 385.882 177.305C385.885 170.775 387.52 168.965 393.445 168.957C407.774 168.938 422.104 168.933 436.433 168.955C442.49 168.964 444.261 170.921 444.261 177.584C444.269 256.984 444.266 336.384 444.268 415.784C444.268 421.981 444.274 421.98 450.018 421.983C453.275 421.985 456.533 422.068 459.787 421.971C463.79 421.851 465.709 424.221 466.464 428.147C467.128 431.598 465.337 435.409 462.327 436.812C460.494 437.665 458.545 437.728 456.575 437.727C379.068 437.697 301.561 437.684 224.054 437.662C217.386 437.66 213.154 432.563 215.164 426.921C216.296 423.746 218.33 421.917 221.694 421.975C227.034 422.069 232.385 421.77 237.713 422.049C241.303 422.236 242.116 420.613 242.096 417.083C241.985 397.34 242.038 377.595 242.038 357.851C242.038 347.133 242.029 336.415 242.054 325.696C242.068 319.757 244.498 316.531 249.95 316.443C264.015 316.215 278.088 316.163 292.151 316.448C298.18 316.57 300.395 319.641 300.398 326.238C300.412 356.418 300.464 386.599 300.321 416.778C300.302 420.794 301.267 422.213 305.109 422.051C315.263 421.622 313.954 423.496 313.963 412.263C314.002 360.646 313.973 309.029 313.975 257.412C313.976 249.416 315.564 247.677 322.845 247.67C336.393 247.658 349.94 247.649 363.488 247.663C370.087 247.67 372.328 250.252 372.328 257.832C372.326 310.436 372.315 363.04 372.308 415.644C372.308 421.997 372.314 422.044 378.313 421.96C386.275 421.848 385.876 423.35 385.876 413.809C385.874 359.231 385.874 304.654 385.873 249.653Z" />
        <path id="Tick"
          d="M228.671 160.724C224.137 156.434 219.813 152.367 215.554 148.22C211.96 144.72 211.487 139.805 214.295 136.209C217.052 132.677 221.231 132.478 225.094 135.752C226.425 136.881 227.825 137.985 228.919 139.356C231.567 142.676 233.425 141.805 235.637 138.645C241.216 130.674 247.037 122.899 252.761 115.046C255.732 110.971 259.373 110.245 262.948 113.016C266.483 115.756 267.482 120.701 264.724 124.549C256.187 136.461 247.515 148.263 238.724 159.956C236.12 163.42 233.44 163.416 228.671 160.724Z" />
        <path id="Empty Arc"
          d="M305.816 154.239C306.697 176.181 302.019 196.395 290.321 214.9C289.908 215.553 289.498 216.207 289.059 216.843C284.468 223.496 280.092 224.38 273.175 220.104C261.663 212.988 250.191 205.81 238.607 198.806C222.79 189.241 206.933 179.735 190.983 170.382C186.599 167.812 184.602 164.631 184.618 159.517C184.688 137.048 184.366 114.578 184.321 92.1073C184.299 80.8745 184.545 69.6408 184.713 58.4081C184.788 53.3837 187.005 51.2094 192.22 51.2002C249.536 51.0995 294.501 88.7959 304.303 140.992C305.102 145.25 305.824 149.516 305.816 154.239ZM288.306 135.992C283.332 117.278 273.36 101.55 258.396 88.8556C243.005 75.7983 225.059 68.3606 204.788 66.3343C199.746 65.8303 199.363 66.4021 199.362 71.3194C199.352 98.7769 199.418 126.235 199.299 153.692C199.285 156.806 200.433 158.513 203.068 160.09C224.859 173.128 246.649 186.169 268.121 199.705C271.473 201.818 274.582 204.427 278.859 205.809C291.47 183.831 294.101 160.771 288.306 135.992Z" />
        <path id="Filled Arc"
          d="M202.549 192.2C222.248 204.216 241.699 216.093 261.161 227.955C267.284 231.686 267.786 233.432 263.125 239.403C249.181 257.263 231.998 270.709 209.996 278.074C146.539 299.316 79.3889 263.072 64.5418 198.602C52.4913 146.275 76.3376 97.0315 122.435 73.6255C135.97 66.7534 150.457 62.8476 165.82 62.7212C171.758 62.6724 173.142 64.0753 173.146 69.9605C173.167 103.017 173.236 136.073 173.099 169.129C173.084 172.836 174.361 174.898 177.519 176.751C185.894 181.666 194.058 186.93 202.549 192.2Z" />
        <path id="Border"
          d="M0.0208418 191.582C0.0195893 165.417 0.0877032 139.678 0.000802532 113.939C-0.121938 77.5692 13.4847 48.4197 39.1064 25.2665C57.8988 8.28444 79.7588 0.381825 103.812 0.314949C205.475 0.0322865 307.141 -0.243448 408.802 0.3612C461.831 0.676519 501.905 42.3481 510.524 92.5408C511.511 98.2871 512.002 104.027 512 109.87C511.965 206.71 511.984 303.551 511.969 400.391C511.961 452.739 475.346 499.997 427.641 509.385C419.22 511.042 410.77 511.909 402.207 511.906C303.173 511.874 204.138 512.23 105.106 511.735C62.7344 511.523 31.5537 489.572 11.1722 449.771C4.83017 437.386 1.70655 423.768 0.654535 409.525C0.108224 402.129 0.0824532 394.77 0.0761425 387.396C0.0206006 322.267 0.030476 257.138 0.0208418 191.582ZM497.239 141.661C497.239 132.986 497.163 124.31 497.263 115.637C497.344 108.669 497.354 101.691 496.131 94.8461C487.273 45.3095 445.179 16.2764 406.977 16.4696C305.571 16.9824 204.162 16.6778 102.755 16.6622C85.2864 16.6595 69.1862 21.8199 54.8716 32.4375C28.8362 51.7487 14.8004 78.3648 14.788 112.929C14.754 207.642 14.7807 302.355 14.7699 397.068C14.7682 412.179 17.0716 426.789 23.3939 440.366C39.802 475.602 66.3997 495.382 102.785 495.665C203.661 496.451 304.546 495.92 405.428 495.981C416.594 495.988 427.364 493.943 437.825 489.861C473.216 476.05 497.237 439.09 497.238 398.496C497.239 313.169 497.238 227.842 497.239 141.661Z" />
      </g>
      <path id="Text"
        d="M820.19 195.03H786.65C786.39 212.19 786.13 229.35 785.87 246.51C785.87 263.41 785.87 281.09 785.87 299.55H815.9C836.96 299.55 852.43 294.48 862.31 284.34C872.45 274.2 877.52 261.33 877.52 245.73C877.52 229.35 872.97 216.87 863.87 208.29C854.77 199.45 840.21 195.03 820.19 195.03ZM712.16 193.08V177.09H821.36C851.26 177.09 874.53 183.07 891.17 195.03C907.81 206.99 916.13 223.76 916.13 245.34C916.13 260.42 910.67 274.2 899.75 286.68C888.83 299.16 872.45 307.35 850.61 311.25C862.05 313.59 871.41 318.66 878.69 326.46C886.23 334 892.21 345.44 896.63 360.78L913.4 418.5L943.43 422.01V438C939.53 439.04 935.11 439.95 930.17 440.73C925.49 441.51 920.16 441.9 914.18 441.9C901.96 441.9 892.73 440.08 886.49 436.44C880.51 432.8 876.35 426.3 874.01 416.94L858.41 354.54C856.07 343.88 852.69 335.95 848.27 330.75C843.85 325.29 838.13 321.65 831.11 319.83C824.35 318.01 815.64 317.1 804.98 317.1H785.87C785.87 335.82 785.87 353.37 785.87 369.75C786.13 386.13 786.39 402.12 786.65 417.72L822.53 422.01V438H712.16V422.01L748.04 417.72C748.56 401.34 748.82 384.7 748.82 367.8C748.82 350.9 748.82 334 748.82 317.1V297.99C748.82 281.09 748.82 264.32 748.82 247.68C748.82 230.78 748.56 214.01 748.04 197.37L712.16 193.08ZM962.683 438V423.96L991.933 418.5C992.193 408.62 992.323 397.96 992.323 386.52C992.583 374.82 992.713 364.68 992.713 356.1V337.77C992.713 327.11 992.583 318.27 992.323 311.25C992.323 303.97 992.063 296.43 991.543 288.63L960.343 285.12V271.47L1020.4 247.68L1026.25 251.58L1025.08 304.62V356.1C1025.08 364.68 1025.08 374.82 1025.08 386.52C1025.34 397.96 1025.6 408.62 1025.86 418.5L1053.16 423.96V438H962.683ZM1008.7 204.78C1001.42 204.78 995.183 202.44 989.983 197.76C985.043 193.08 982.573 187.1 982.573 179.82C982.573 172.28 985.043 166.3 989.983 161.88C995.183 157.2 1001.42 154.86 1008.7 154.86C1015.98 154.86 1022.09 157.2 1027.03 161.88C1032.23 166.3 1034.83 172.28 1034.83 179.82C1034.83 187.1 1032.23 193.08 1027.03 197.76C1022.09 202.44 1015.98 204.78 1008.7 204.78ZM1143.2 443.07C1132.28 443.07 1122.27 441.77 1113.17 439.17C1104.07 436.83 1094.71 433.19 1085.09 428.25L1083.53 385.35H1104.98L1112.39 419.28C1121.49 423.44 1132.02 425.52 1143.98 425.52C1158.8 425.52 1169.72 422.79 1176.74 417.33C1184.02 411.87 1187.66 404.72 1187.66 395.88C1187.66 387.56 1184.67 380.93 1178.69 375.99C1172.71 370.79 1163.61 366.11 1151.39 361.95L1133.45 355.32C1119.15 350.12 1107.71 343.36 1099.13 335.04C1090.55 326.72 1086.26 315.93 1086.26 302.67C1086.26 293.05 1088.86 284.08 1094.06 275.76C1099.26 267.44 1106.93 260.68 1117.07 255.48C1127.21 250.28 1139.56 247.68 1154.12 247.68C1164.78 247.68 1174.4 249.11 1182.98 251.97C1191.82 254.57 1200.4 258.47 1208.72 263.67L1207.16 303.45H1186.88L1180.64 272.25C1171.8 267.83 1162.83 265.62 1153.73 265.62C1141.77 265.62 1132.67 268.09 1126.43 273.03C1120.45 277.71 1117.46 284.08 1117.46 292.14C1117.46 300.72 1120.06 307.22 1125.26 311.64C1130.72 316.06 1140.08 320.74 1153.34 325.68L1165.43 329.97C1184.93 337.25 1198.71 345.57 1206.77 354.93C1215.09 364.29 1219.25 375.08 1219.25 387.3C1219.25 397.18 1216.39 406.41 1210.67 414.99C1204.95 423.31 1196.5 430.07 1185.32 435.27C1174.14 440.47 1160.1 443.07 1143.2 443.07ZM1240.24 438V423.96L1271.44 418.5C1271.7 408.1 1271.83 397.7 1271.83 387.3C1272.09 376.64 1272.22 366.24 1272.22 356.1V184.89L1240.24 180.99V167.34L1301.08 149.79L1306.54 152.91L1304.98 208.29V344.4L1371.67 274.98L1342.81 267.96V252.75H1433.68V267.96L1397.02 273.42L1354.12 317.49L1418.08 419.28L1443.82 423.96V438H1390.78L1330.72 341.28L1304.98 367.8C1304.98 376.12 1304.98 384.57 1304.98 393.15C1305.24 401.73 1305.5 410.18 1305.76 418.5L1336.96 423.96V438H1240.24ZM1535.36 246.51L1538.48 177.09H1752.2L1755.32 246.51H1732.7L1724.12 196.59H1664.45C1664.19 213.23 1663.93 230 1663.67 246.9C1663.67 263.8 1663.67 280.83 1663.67 297.99V317.1C1663.67 333.74 1663.67 350.51 1663.67 367.41C1663.93 384.05 1664.19 400.82 1664.45 417.72L1704.23 422.01V438H1586.45V422.01L1626.23 417.72C1626.75 401.08 1627.01 384.44 1627.01 367.8C1627.01 350.9 1627.01 334 1627.01 317.1V297.99C1627.01 281.09 1627.01 264.19 1627.01 247.29C1627.01 230.39 1626.75 213.49 1626.23 196.59H1566.56L1557.98 246.51H1535.36ZM1776.58 438V423.96L1805.83 418.5C1806.09 408.62 1806.22 397.96 1806.22 386.52C1806.48 374.82 1806.61 364.68 1806.61 356.1V337.77C1806.61 327.11 1806.48 318.27 1806.22 311.25C1806.22 303.97 1805.96 296.43 1805.44 288.63L1774.24 285.12V271.47L1834.3 247.68L1840.15 251.58L1838.98 304.62V356.1C1838.98 364.68 1838.98 374.82 1838.98 386.52C1839.24 397.96 1839.5 408.62 1839.76 418.5L1867.06 423.96V438H1776.58ZM1822.6 204.78C1815.32 204.78 1809.08 202.44 1803.88 197.76C1798.94 193.08 1796.47 187.1 1796.47 179.82C1796.47 172.28 1798.94 166.3 1803.88 161.88C1809.08 157.2 1815.32 154.86 1822.6 154.86C1829.88 154.86 1835.99 157.2 1840.93 161.88C1846.13 166.3 1848.73 172.28 1848.73 179.82C1848.73 187.1 1846.13 193.08 1840.93 197.76C1835.99 202.44 1829.88 204.78 1822.6 204.78ZM1984 265.62C1976.72 265.62 1969.31 267.7 1961.77 271.86C1954.49 276.02 1948.12 282.65 1942.66 291.75C1937.46 300.85 1934.08 312.94 1932.52 328.02H2003.5C2012.86 328.02 2018.97 326.07 2021.83 322.17C2024.95 318.27 2026.51 313.46 2026.51 307.74C2026.51 300.2 2024.56 293.31 2020.66 287.07C2017.02 280.57 2011.95 275.37 2005.45 271.47C1999.21 267.57 1992.06 265.62 1984 265.62ZM1983.61 443.07C1957.35 443.07 1936.29 434.62 1920.43 417.72C1904.57 400.56 1896.64 377.03 1896.64 347.13C1896.64 327.11 1900.67 309.69 1908.73 294.87C1917.05 280.05 1927.97 268.48 1941.49 260.16C1955.27 251.84 1970.22 247.68 1986.34 247.68C1999.86 247.68 2012.08 250.67 2023 256.65C2033.92 262.63 2042.63 271.21 2049.13 282.39C2055.63 293.31 2058.88 306.7 2058.88 322.56C2058.88 326.98 2058.62 331.14 2058.1 335.04C2057.58 338.68 2056.93 341.8 2056.15 344.4H1931.74C1932.26 368.32 1938.24 386.52 1949.68 399C1961.12 411.48 1976.2 417.72 1994.92 417.72C2007.4 417.72 2017.8 415.25 2026.12 410.31C2034.44 405.11 2042.11 398.48 2049.13 390.42L2058.49 397.83C2051.21 411.61 2041.33 422.66 2028.85 430.98C2016.37 439.04 2001.29 443.07 1983.61 443.07ZM2094.28 438V423.96L2122.36 418.89C2122.62 409.01 2122.75 398.35 2122.75 386.91C2123.01 375.21 2123.14 364.94 2123.14 356.1V337.38C2123.14 326.72 2123.01 317.88 2122.75 310.86C2122.75 303.84 2122.49 296.43 2121.97 288.63L2091.16 285.12V271.47L2145.76 247.68L2151.61 251.58L2155.9 297.6C2162.4 282 2170.72 269.78 2180.86 260.94C2191.26 252.1 2201.66 247.68 2212.06 247.68C2218.04 247.68 2223.63 248.98 2228.83 251.58C2234.03 254.18 2237.8 257.69 2240.14 262.11C2240.14 281.09 2232.47 290.58 2217.13 290.58C2212.71 290.58 2208.55 289.8 2204.65 288.24C2200.75 286.42 2196.98 283.95 2193.34 280.83L2188.66 276.54C2180.86 282.26 2174.36 289.28 2169.16 297.6C2163.96 305.92 2159.67 315.67 2156.29 326.85V356.1C2156.29 364.68 2156.29 374.69 2156.29 386.13C2156.55 397.57 2156.81 408.23 2157.07 418.11L2189.05 423.96V438H2094.28ZM2334.4 246.51L2337.52 177.09H2551.24L2554.36 246.51H2531.74L2523.16 196.59H2463.49C2463.23 213.23 2462.97 230 2462.71 246.9C2462.71 263.8 2462.71 280.83 2462.71 297.99V317.1C2462.71 333.74 2462.71 350.51 2462.71 367.41C2462.97 384.05 2463.23 400.82 2463.49 417.72L2503.27 422.01V438H2385.49V422.01L2425.27 417.72C2425.79 401.08 2426.05 384.44 2426.05 367.8C2426.05 350.9 2426.05 334 2426.05 317.1V297.99C2426.05 281.09 2426.05 264.19 2426.05 247.29C2426.05 230.39 2425.79 213.49 2425.27 196.59H2365.6L2357.02 246.51H2334.4ZM2641.41 443.07C2626.33 443.07 2611.9 439.56 2598.12 432.54C2584.6 425.26 2573.55 414.47 2564.97 400.17C2556.39 385.61 2552.1 367.67 2552.1 346.35C2552.1 324.77 2556.39 306.7 2564.97 292.14C2573.55 277.32 2584.6 266.27 2598.12 258.99C2611.9 251.45 2626.33 247.68 2641.41 247.68C2656.49 247.68 2670.79 251.45 2684.31 258.99C2698.09 266.27 2709.27 277.32 2717.85 292.14C2726.69 306.7 2731.11 324.77 2731.11 346.35C2731.11 367.67 2726.69 385.61 2717.85 400.17C2709.27 414.47 2698.09 425.26 2684.31 432.54C2670.79 439.56 2656.49 443.07 2641.41 443.07ZM2641.41 425.52C2658.31 425.52 2671.31 418.89 2680.41 405.63C2689.51 392.11 2694.06 372.35 2694.06 346.35C2694.06 320.09 2689.51 300.07 2680.41 286.29C2671.31 272.51 2658.31 265.62 2641.41 265.62C2624.51 265.62 2611.51 272.51 2602.41 286.29C2593.57 300.07 2589.15 320.09 2589.15 346.35C2589.15 372.35 2593.57 392.11 2602.41 405.63C2611.51 418.89 2624.51 425.52 2641.41 425.52ZM2855.45 443.07C2840.37 443.07 2825.94 439.56 2812.16 432.54C2798.64 425.26 2787.59 414.47 2779.01 400.17C2770.43 385.61 2766.14 367.67 2766.14 346.35C2766.14 324.77 2770.43 306.7 2779.01 292.14C2787.59 277.32 2798.64 266.27 2812.16 258.99C2825.94 251.45 2840.37 247.68 2855.45 247.68C2870.53 247.68 2884.83 251.45 2898.35 258.99C2912.13 266.27 2923.31 277.32 2931.89 292.14C2940.73 306.7 2945.15 324.77 2945.15 346.35C2945.15 367.67 2940.73 385.61 2931.89 400.17C2923.31 414.47 2912.13 425.26 2898.35 432.54C2884.83 439.56 2870.53 443.07 2855.45 443.07ZM2855.45 425.52C2872.35 425.52 2885.35 418.89 2894.45 405.63C2903.55 392.11 2908.1 372.35 2908.1 346.35C2908.1 320.09 2903.55 300.07 2894.45 286.29C2885.35 272.51 2872.35 265.62 2855.45 265.62C2838.55 265.62 2825.55 272.51 2816.45 286.29C2807.61 300.07 2803.19 320.09 2803.19 346.35C2803.19 372.35 2807.61 392.11 2816.45 405.63C2825.55 418.89 2838.55 425.52 2855.45 425.52ZM2968.58 438V423.96L2999.78 418.5C3000.04 407.84 3000.17 397.44 3000.17 387.3C3000.43 376.9 3000.56 366.5 3000.56 356.1V184.89L2968.58 180.99V167.34L3029.42 149.79L3034.88 152.91L3033.32 208.29V356.1C3033.32 366.5 3033.32 376.9 3033.32 387.3C3033.58 397.7 3033.84 408.1 3034.1 418.5L3065.3 423.96V438H2968.58Z" />
    </g>
  </g>
  <defs>
    <clipPath id="clip0_0_1">
      <rect width="3334" height="512" />
    </clipPath>
    <clipPath id="clip1_0_1">
      <rect width="512" height="512" />
    </clipPath>
  </defs>
</svg>